# xmcd
#
# Track frame offsets:
#	150
#	12135
#	24597
#	36427
#	52512
#	65275
#	78390
#	98230
#	114620
#	129675
#	144215
#	156147
#	169712
#	181972
#
# Disc length: 2603 seconds
#
# Revision: 0
# Processed by: cddbd v1.5.1PL0 Copyright (c) Steve Scherf et al.
# Submitted via: audiograbber 1.83.01
#
DISCID=aa0a290e
DTITLE=Tom Astor - Guten Morgen , Deutschland
DYEAR=1900
DGENRE=Country
TTITLE0=14 Tage auf dem Brenner
TTITLE1=Junge , zieh die Bremse an 
TTITLE2=Wer verliert , gewinnt irgendwann
TTITLE3=Angie
TTITLE4=Mein Laster wartet schon
TTITLE5=Ich bin einer , so wie du
TTITLE6=Daddy , wenn ich groﬂ bin fahr' ich Diesel
TTITLE7=Wer die Oma nicht kennt, hat die Zeit echt verpennt
TTITLE8=Sonntagmorgen
TTITLE9=Devil
TTITLE10=Guten Morgen, Deutschland
TTITLE11=Irgendwo am Horizont
TTITLE12=Trucker sind Partner
TTITLE13=Der kleine Trucker
EXTD=
EXTT0=
EXTT1=
EXTT2=
EXTT3=
EXTT4=
EXTT5=
EXTT6=
EXTT7=
EXTT8=
EXTT9=
EXTT10=
EXTT11=
EXTT12=
EXTT13=
PLAYORDER=
